pedal_clip_forces.mot
version=1
nRows=202
nColumns=4
inDegrees=yes
endheader
time	PedalClip_calcn_r_Fx	PedalClip_calcn_r_Fy	PedalClip_calcn_r_Fz
0.34696118	59.7634474282312	-428.20481490625	-0
0.34754398	57.6990331884062	-420.288191223939	-0
0.34812677	55.6943777170876	-412.656659137822	-0
0.34897583	53.7485256859652	-405.296023501467	-0
0.34982489	51.8619583735258	-398.234852174222	-0
0.35037332	50.0335021749071	-391.492049923535	-0
0.35092175	48.2633550402392	-385.095071896408	-0
0.35191608	46.5501494174313	-379.040447909122	-0
0.35255703	44.8943518152728	-373.297582753641	-0
0.35322244	43.2938182679195	-367.786291000996	-0
0.35388784	41.7481029547216	-362.450194138296	-0
0.35454042	40.253937539537	-357.307395926163	-0
0.355193	38.8101328022242	-352.336448341682	-0
0.35576259	37.413624457522	-347.490813068685	-0
0.35633218	36.0640124534101	-342.770113346852	-0
0.35695155	34.7595315756881	-338.211152173112	-0
0.35757093	33.5006022557585	-333.823987209525	-0
0.35810585	32.2856723324847	-329.5970586956	-0
0.35864078	31.11269462986	-325.523031283435	-0
0.35928693	29.9747489703851	-321.587278313394	-0
0.35993309	28.8657693112359	-317.783285291777	-0
0.36044915	27.7846021161829	-314.107968743914	-0
0.36096521	26.7319788435329	-310.549033187502	-0
0.36170016	25.7100457829963	-307.082026444321	-0
0.3624351	24.7195313066557	-303.694526148258	-0
0.36294235	23.7587427475028	-300.39070973158	-0
0.3634496	22.826158737636	-297.176971965037	-0
0.36414698	21.9187210666548	-294.061878050763	-0
0.36484436	21.033881141502	-291.0499371895	-0
0.3653419	20.1703025053297	-288.140978177212	-0
0.36583945	19.3308685316812	-285.338026266232	-0
0.36654525	18.5157901681995	-282.638164780224	-0
0.36725106	17.7238490537249	-280.03509310831	-0
0.3677477	16.9519385725611	-277.517645005146	-0
0.36824433	16.1966582309748	-275.069087501662	-0
0.36889943	15.4552866112041	-272.677568592666	-0
0.36955452	14.7276163627053	-270.341487248136	-0
0.37004223	14.0137165006809	-268.05877805382	-0
0.37052994	13.3157996500059	-265.836335771595	-0
0.37118897	12.6339732286504	-263.675116054184	-0
0.371848	11.9678824246634	-261.576482472485	-0
0.37233328	11.316540324557	-259.538242522224	-0
0.37281856	10.6791665709554	-257.558109988545	-0
0.37346007	10.0546027318353	-255.631026670623	-0
0.37410159	9.44185645669303	-253.753003303702	-0
0.37458352	8.84035467444799	-251.92104392626	-0
0.37506545	8.24947745953337	-250.132633527209	-0
0.37569247	7.66879938703915	-248.386557883465	-0
0.3763195	7.09769756573333	-246.680724799992	-0
0.37679844	6.53576491250003	-245.013291883683	-0
0.37727738	5.98251175051417	-243.381927853141	-0
0.37789419	5.43768743974378	-241.785364373093	-0
0.37851099	4.90093597676115	-240.22175373483	-0
0.37898757	4.37206194624089	-238.690217383982	-0
0.37946414	3.85072365311046	-237.188869689323	-0
0.38007271	3.33666310007235	-235.71748644418	-0
0.38068128	2.82943020421137	-234.274959724301	-0
0.38115596	2.32896141695069	-232.860989937347	-0
0.38163064	1.83476678886448	-231.473389448161	-0
0.38223239	1.34664994701525	-230.110776316428	-0
0.38283414	0.864153948457131	-228.771675809398	-0
0.38331394	0.38718114156324	-227.456727470415	-0
0.38379373	-0.0844213871288578	-226.166693353899	-0
0.384409	-0.550443598441858	-224.903252301666	-0
0.38502426	-1.01084135695669	-223.667196044346	-0
0.38549919	-1.46544317221794	-222.459451494351	-0
0.38597412	-1.91414312360145	-221.280084432323	-0
0.38655826	-2.35653993661881	-220.129507617891	-0
0.3871424	-2.79249097133686	-219.007998891613	-0
0.38762129	-3.22158315747198	-217.917803262359	-0
0.38810018	-3.64347528139811	-216.861793489721	-0
0.38870153	-4.05805586701072	-215.8419353638	-0
0.38930289	-4.46571350179563	-214.857681144138	-0
0.38977502	-4.86709621863057	-213.906737393716	-0
0.39024715	-5.26301098920299	-212.985183651298	-0
0.39082975	-5.65409214010506	-212.089260649317	-0
0.39141234	-6.04089023622174	-211.215027925534	-0
0.39188623	-6.42374725991916	-210.359462596487	-0
0.39236012	-6.8031234521369	-209.519014283125	-0
0.39322562	-7.17943848449242	-208.690911521895	-0
0.39409112	-7.55327846009647	-207.871682587448	-0
0.39469701	-7.92510600160096	-207.058991968058	-0
0.39530289	-8.29557149342199	-206.25004445503	-0
0.39576852	-8.66510907793908	-205.443697509749	-0
0.39623416	-9.03414203342484	-204.638804146169	-0
0.39686581	-9.40273869577015	-203.835708868701	-0
0.39749746	-9.77098676590297	-203.034632964808	-0
0.39795503	-10.13883987584	-202.236289458747	-0
0.39841259	-10.5063605247623	-201.440603908883	-0
0.39924848	-10.8733520752403	-200.64836712433	-0
0.40008438	-11.2396377493219	-199.860131908003	-0
0.40048255	-11.6048809872093	-199.07704989057	-0
0.40088072	-11.968747120216	-198.300246296941	-0
0.40146483	-12.3308572274987	-197.531338407926	-0
0.40204895	-12.6908669092686	-196.772198548683	-0
0.40263307	-13.0484669725912	-196.024689340393	-0
0.40321719	-13.403270381541	-195.290738754794	-0
0.40380131	-13.7549233541787	-194.57137523379	-0
0.40438543	-14.1030101600653	-193.867277802205	-0
0.40496954	-14.4472618257405	-193.178204543975	-0
0.40555366	-14.7873715801632	-192.504048787002	-0
0.40613778	-15.1232244788165	-191.844468607729	-0
0.4067219	-15.4546069666438	-191.199846024251	-0
0.40730602	-15.781368839382	-190.570958584066	-0
0.40789014	-16.1031836370004	-189.95844674781	-0
0.40847426	-16.4198342086066	-189.362234332288	-0
0.40905837	-16.7314898044218	-188.781276824936	-0
0.40964249	-17.0383984252528	-188.214248395957	-0
0.41022661	-17.3409556364632	-187.659615001321	-0
0.41081073	-17.6394899615622	-187.115907323053	-0
0.41139485	-17.9342838657274	-186.582003495061	-0
0.4119182	-18.2255748050925	-186.056964985477	-0
0.41244156	-18.5135214561023	-185.540303489091	-0
0.41296491	-18.798280751761	-185.031495421757	-0
0.41348827	-19.0799863021394	-184.530298085793	-0
0.41401162	-19.3588338935829	-184.036216326424	-0
0.41453498	-19.634990808476	-183.548850701003	-0
0.41505833	-19.9087009729263	-183.067534393181	-0
0.41558169	-20.1801226798747	-182.592024274767	-0
0.41610504	-20.449375261997	-182.122254915858	-0
0.4166284	-20.7166273796096	-181.657950172724	-0
0.41715175	-20.9821000693036	-181.19862028227	-0
0.41767511	-21.2459856701456	-180.743904051105	-0
0.41819846	-21.5084845259567	-180.293412354387	-0
0.41872181	-21.7697471201709	-179.846954596928	-0
0.41924517	-22.0299159201408	-179.404340469367	-0
0.41976852	-22.289064505339	-178.965593837088	-0
0.42029188	-22.5472477932563	-178.530708876939	-0
0.42081523	-22.8044513513472	-178.099846399577	-0
0.42133859	-23.0606548078129	-177.673068995659	-0
0.42186194	-23.3157886801987	-177.250543861932	-0
0.4223853	-23.5698099473144	-176.83227185624	-0
0.42290865	-23.8226554108424	-176.418308432785	-0
0.42343201	-24.0743176740773	-176.008510858517	-0
0.42395536	-24.3247871634891	-175.60277103731	-0
0.42447872	-24.5741087383533	-175.200827415308	-0
0.42500207	-24.8223091713277	-174.802527127917	-0
0.42552543	-25.0693897024344	-174.407837047595	-0
0.42604878	-25.3154152443382	-174.016455777015	-0
0.42657214	-25.560438221508	-173.628125646063	-0
0.42709549	-25.8044457645739	-173.242871901144	-0
0.42761885	-26.047464300876	-172.860557306516	-0
0.4281422	-26.2895317306293	-172.480991187844	-0
0.42866556	-26.5306352077083	-172.104205806603	-0
0.42918891	-26.7706798616955	-171.730616641634	-0
0.42971227	-27.0095745383726	-171.360635826373	-0
0.43023562	-27.2472131641728	-170.99474326372	-0
0.43075898	-27.4835521088608	-170.633164402289	-0
0.43128233	-27.7185485782582	-170.27614599699	-0
0.43180568	-27.952168773802	-169.923866584398	-0
0.43232904	-28.1844338482603	-169.57622655735	-0
0.43285239	-28.4153864265491	-169.232960173965	-0
0.43337575	-28.6451367917522	-168.893543394183	-0
0.4338991	-28.8737986357132	-168.557444989831	-0
0.43442246	-29.1014994835376	-168.224175169854	-0
0.43494581	-29.3283227428908	-167.893500497179	-0
0.43546917	-29.5543470513747	-167.565436882309	-0
0.43599252	-29.7796518800777	-167.240099291387	-0
0.43651588	-30.0042864532782	-166.917644445265	-0
0.43703923	-30.2282355952599	-166.598241783862	-0
0.43756259	-30.4514042557038	-166.282049426382	-0
0.43808594	-30.6736361572138	-165.969178172518	-0
0.4386093	-30.8947474311261	-165.659698114116	-0
0.43913265	-31.1145729619464	-165.353594784427	-0
0.43965601	-31.3329832846143	-165.050789441292	-0
0.44017936	-31.5498780286833	-164.751190224073	-0
0.44070272	-31.7651899568501	-164.454644684185	-0
0.44122607	-31.9788776527797	-164.160928001307	-0
0.44174943	-32.1909111714466	-163.869773531414	-0
0.44227278	-32.4012554706918	-163.580934834357	-0
0.44279614	-32.6098713523423	-163.294181314651	-0
0.44331949	-32.8167077157088	-163.009349539312	-0
0.44384285	-33.0217101213609	-162.726329502431	-0
0.4443662	-33.2248164443851	-162.44511737439	-0
0.44488955	-33.4259567574056	-162.165835289108	-0
0.44541291	-33.6250642853853	-161.888690033718	-0
0.44593626	-33.8220790793302	-161.613953922132	-0
0.44645962	-34.0169666763931	-161.341881436533	-0
0.44686292	-34.2097265257159	-161.072671242063	-0
0.44726622	-34.4004048288694	-160.806403640494	-0
0.44773172	-34.5890973185153	-160.543030483734	-0
0.44819722	-34.7759460291149	-160.282373412719	-0
0.44866272	-34.9611328749302	-160.024122602915	-0
0.44912821	-35.1448607211446	-159.767890469279	-0
0.44959371	-35.3273410254242	-159.513234357452	-0
0.45005921	-35.5087643654915	-159.259770358985	-0
0.45052471	-35.6893119000339	-159.007107863155	-0
0.45099021	-35.8690928839152	-158.75512578755	-0
0.45145571	-36.0482104750105	-158.503692860793	-0
0.45192121	-36.2267870475783	-158.252577155814	-0
0.4523867	-36.4048603245631	-158.001949901071	-0
0.4528522	-36.5824221285755	-157.752229890136	-0
0.4533177	-36.7594680041513	-157.503810369694	-0
0.4537832	-36.9360174716169	-157.256896928671	-0
0.4542487	-37.1120384846066	-157.011779656989	-0
0.4547142	-37.2875037486292	-156.768520920336	-0
0.4551797	-37.4623406017576	-156.527139804742	-0
0.4556452	-37.6365330616982	-156.287272191176	-0
0.45611069	-37.8101142514714	-156.048411663101	-0
0.45657619	-37.9831057444351	-155.810254742845	-0
0.45704169	-38.1555507128741	-155.572581332461	-0
0.45750719	-38.3274399294608	-155.335463943111	-0
